# xmcd CD database file
#
# Track frame offsets:
#	150
#	21048
#	37862
#	54763
#	69048
#	88570
#	120490
#	141133
#	159463
#	187429
#	202103
#	218966
#
# Disc length: 3237 seconds
#
# Revision: 1
# Processed by: cddbd v1.4PL0 Copyright (c) Steve Scherf et al.
# Submitted via: CDex 1.50beta8
#
DISCID=a00ca30c
DTITLE=NGFOOT - In the Spirit of Love
DYEAR=2002
DGENRE=Jazz
TTITLE0=Misha's Mombo for Lovers
TTITLE1=In the Spirit of Love
TTITLE2=Loving Under Fair Skies
TTITLE3=Art's Riff for Love
TTITLE4=Over There
TTITLE5=Over the Phone
TTITLE6=Cupid's Crossbow
TTITLE7=No Need to Fix Love
TTITLE8=Sneeze
TTITLE9=Rack Sacking Love
TTITLE10=A Smart Child Loves
TTITLE11=Love is a Wonderful Confusion
EXTD=YEAR: 2002
EXTT0=
EXTT1=
EXTT2=
EXTT3=
EXTT4=
EXTT5=
EXTT6=
EXTT7=
EXTT8=
EXTT9=
EXTT10=
EXTT11=
PLAYORDER=
